# xmcd
#
# Track frame offsets:
#	150
#	9580
#	23417
#	38297
#	49366
#	60089
#	74181
#	84756
#	96653
#	107944
#	117413
#	129888
#
# Disc length: 1975 seconds
#
# Revision: 0
# Processed by: cddbd v1.5.2PL0 Copyright (c) Steve Scherf et al.
# Submitted via: audiograbber 1.83.01
#
DISCID=9407b50c
DTITLE=Tirolkrayner - Saftig aufg´spielt
DYEAR=2007
DGENRE=Völkstümlich
TTITLE0=Saftig aufg´spielt
TTITLE1=Mei liabes Mad´l
TTITLE2=Das Mädchen mit den blauen Augen
TTITLE3=Klarinetten Polka
TTITLE4=Die Oberkrainer kommen
TTITLE5=Eine Reise ins Glück
TTITLE6=Von Ort zu Ort
TTITLE7=Am Haldensee
TTITLE8=Goggo und sein Akkordeon
TTITLE9=Über´n Jagersteig
TTITLE10=Von Weissenbach nach Sölden
TTITLE11=Es gibt Millionen von Sternen
EXTD=
EXTT0=
EXTT1=
EXTT2=
EXTT3=
EXTT4=
EXTT5=
EXTT6=
EXTT7=
EXTT8=
EXTT9=
EXTT10=
EXTT11=
PLAYORDER=
